<?xml version="1.0" encoding="utf-8" ?>
<svg baseProfile="full" height="200mm" version="1.1" viewBox="0,0,200,200" width="200mm" xmlns="http://www.w3.org/2000/svg" xmlns:ev="http://www.w3.org/2001/xml-events" xmlns:xlink="http://www.w3.org/1999/xlink"><defs /><rect fill="#1a1a1a" height="200" width="200" x="0" y="0" /><text alignment-baseline="middle" fill="#e1ed5e" style="dominant-baseline: central; font-size:9.0px; font-family:Arial;" text-anchor="middle" x="100.0" y="100.0">2023</text><line stroke="#e1ed5e" stroke-width="0.3" x1="100.0" x2="100.0" y1="15.0" y2="10.0" /><path d="M 100.0 14.0 a86.0,86.0 0 0,1 42.46469731375804,11.215312516191453" fill="none" id="id37" stroke="none" /><text fill="#e1ed5e" style="font-size:6.75px; font-family:Arial;" text-anchor="middle"><textPath startOffset="22.20632615414155" xlink:href="#id37">January</textPath></text><path d="M 101.08401301168833 79.027996857942 l 1.9425002755531298 -37.58084215142393 a58.631011202607425,58.631011202607425 0 0,0 1.0074425693719344,0.06077168699083473 l -2.5891048937646763 37.54183719505279" fill="#c2ff1e" stroke="none" /><line stroke="#e1ed5e" stroke-width="0.3" x1="143.23703022742887" x2="145.7803849466894" y1="26.81831364943548" y2="22.513508569990506" /><path d="M 143.74570117128098 25.957352633546492 a86.0,86.0 0 0,1 28.547481713284135,27.462654790039103" fill="none" id="id38" stroke="none" /><text fill="#e1ed5e" style="font-size:6.75px; font-family:Arial;" text-anchor="middle"><textPath startOffset="19.985693538727396" xlink:href="#id38">February</textPath></text><path d="M 110.68208982089419 81.91981866633111 l 17.89112598230891 -30.281977351561153 a56.172297923725594,56.172297923725594 0 0,0 0.8282416316623659,0.4990063158177064 l -18.409729680188914 29.96952442628483" fill="#ecff1a" stroke="none" /><path d="M 112.77801427241765 83.33499621200491 l 31.19123475917342 -40.67940717016595 a72.26116750053609,72.26116750053609 0 0,0 0.9805752506582945,0.7653545367656975 l -31.886842564991145 40.13647424417703" fill="#37ff7b" stroke="none" /><path d="M 114.42810811169701 84.74124197986012 l 43.28432433509102 -45.77627406041963 a84.0,84.0 0 0,0 1.042067025550327,1.0024676529507923 l -44.06587460425377 45.02442332070654" fill="#4dd2ff" stroke="none" /><line stroke="#e1ed5e" stroke-width="0.3" x1="172.23445277983987" x2="176.4835382374775" y1="55.19839476539836" y2="52.563006222186495" /><path d="M 173.08426987136738 54.67131705675599 a86.0,86.0 0 0,1 12.851231095245387,41.99856678651699" fill="none" id="id39" stroke="none" /><text fill="#e1ed5e" style="font-size:6.75px; font-family:Arial;" text-anchor="middle"><textPath startOffset="22.20632615414155" xlink:href="#id39">March</textPath></text><path d="M 118.21658344932153 89.55222093294921 l 32.01001286616459 -18.358741269433633 a57.90100682488254,57.90100682488254 0 0,0 0.4884152819286966,0.8688362877094538 l -32.32128578938571 17.805021471789388" fill="#ceff1d" stroke="none" /><line stroke="#e1ed5e" stroke-width="0.3" x1="184.98032266829074" x2="189.97916517819016" y1="98.17113171792111" y2="98.06355123074" /><path d="M 185.9800911702706 98.14961562048488 a86.0,86.0 0 0,1 -9.607161424134198,41.387399972396054" fill="none" id="id40" stroke="none" /><text fill="#e1ed5e" style="font-size:6.75px; font-family:Arial;" text-anchor="middle"><textPath startOffset="21.466115282336823" xlink:href="#id40">April</textPath></text><line stroke="#e1ed5e" stroke-width="0.3" x1="174.80103733775053" x2="179.2010983576182" y1="140.37084112569926" y2="142.7455964860345" /><path d="M 175.68104954172406 140.8457921977663 a86.0,86.0 0 0,1 -30.038265399797805,32.042727171017184" fill="none" id="id41" stroke="none" /><text fill="#e1ed5e" style="font-size:6.75px; font-family:Arial;" text-anchor="middle"><textPath startOffset="22.206326154141568" xlink:href="#id41">May</textPath></text><line stroke="#e1ed5e" stroke-width="0.3" x1="143.8653032363475" x2="146.44561519142675" y1="172.8068346515853" y2="177.08958963109032" /><path d="M 144.38136562736335 173.6633856474863 a86.0,86.0 0 0,1 -40.68145358897372,12.25698825130547" fill="none" id="id42" stroke="none" /><text fill="#e1ed5e" style="font-size:6.75px; font-family:Arial;" text-anchor="middle"><textPath startOffset="21.466115282336833" xlink:href="#id42">June</textPath></text><line stroke="#e1ed5e" stroke-width="0.3" x1="102.19456741930631" x2="102.32365962044197" y1="184.97166512339345" y2="189.96999836594603" /><path d="M 102.22038585953345 185.97133177190398 a86.0,86.0 0 0,1 -42.740103519485714,-10.115201625700543" fill="none" id="id43" stroke="none" /><text fill="#e1ed5e" style="font-size:6.75px; font-family:Arial;" text-anchor="middle"><textPath startOffset="22.20632615414155" xlink:href="#id43">July</textPath></text><path d="M 100.18074693466247 120.99922214144158 l 0.23325583422085888 27.099718663214137 a48.100722497925304,48.100722497925304 0 0,0 -0.82800553776661,0.0 l 0.23325583422084023 -27.099718663214137" fill="#ff790b" stroke="none" /><path d="M 99.45781275523022 120.99299961872073 l -0.8524832474331087 33.00738012737282 a54.01838685581172,54.01838685581172 0 0,0 -0.9293211336367021,-0.032007698873529104 l 1.4205247327444537 -32.98781563007319" fill="#ffeb16" stroke="none" /><path d="M 97.65516085044442 120.86867818915974 l -4.45728246922065 39.66907216897102 a60.918700551965024,60.918700551965024 0 0,0 -1.0410500500687827,-0.12605666301068832 l 5.139459942340823 -39.586469977234984" fill="#9bff22" stroke="none" /><path d="M 96.93821686468263 120.77559828337769 l -3.268740843767621 22.179900947016638 a43.41947083949985,43.41947083949985 0 0,0 -0.7384703716650066,-0.11533388464382306 l 3.650047079041145 -22.12034875502571" fill="#ff1802" stroke="none" /><path d="M 95.86986931433489 120.58985236759428 l -6.990624952142443 34.85021338947167 a56.54442587119993,56.54442587119993 0 0,0 -0.9526619372287438,-0.19963957150480527 l 7.589478350800573 -34.72471783724032" fill="#e6ff1a" stroke="none" /><path d="M 94.81253420990036 120.34920634021253 l -12.01356732112571 47.12639469665315 a69.63355710704244,69.63355710704244 0 0,0 -1.1589330338068227,-0.30608474760681337 l 12.822990797744021 -46.91261859974276" fill="#32ff4d" stroke="none" /><path d="M 91.7346041902142 119.30500536409082 l -15.2364820143127 35.58696689007116 a59.711530538167764,59.711530538167764 0 0,0 -0.9413930117014353,-0.4126790313394732 l 15.846795700671878 -35.31942330543723" fill="#afff20" stroke="none" /><line stroke="#e1ed5e" stroke-width="0.3" x1="58.666819895761336" x2="56.23545636021788" y1="174.27360380694188" y2="178.64263932499728" /><path d="M 58.180547188652646 175.14741091055294 a86.0,86.0 0 0,1 -31.652253787137756,-30.449443065178592" fill="none" id="id44" stroke="none" /><text fill="#e1ed5e" style="font-size:6.75px; font-family:Arial;" text-anchor="middle"><textPath startOffset="22.20632615414155" xlink:href="#id44">August</textPath></text><path d="M 89.7882731507175 118.34994917583269 l -10.362027665877678 18.62003203119242 a42.30908750254328,42.30908750254328 0 0,0 -0.63332922985062,-0.3596208655867537 l 10.681005662649506 -18.438907999811033" fill="#ff0000" stroke="none" /><path d="M 89.1626897886671 117.98757091392108 l -20.729226456261024 34.40599407063242 a61.16806265509136,61.16806265509136 0 0,0 -0.8971921713148528,-0.5511287102908411 l 21.318397827508186 -34.0440768935132" fill="#97ff23" stroke="none" /><path d="M 85.18274418774928 114.88116024355367 l -28.427263511468922 28.549865707936174 a61.28900771540151,61.28900771540151 0 0,0 -0.7411865757319032,-0.750818088060925 l 28.91449071225636 -28.056307125894584" fill="#95ff23" stroke="none" /><path d="M 82.05923443525364 110.91462005526583 l -42.28596138636981 25.725502099575163 a70.49650481240877,70.49650481240877 0 0,0 -0.6217762327471302,-1.0421327305862795 l 42.722518494815176 -24.99380727510277" fill="#34ff5c" stroke="none" /><line stroke="#e1ed5e" stroke-width="0.3" x1="26.63291911575756" x2="22.317208475507996" y1="142.92168965132927" y2="145.44649492493687" /><path d="M 25.769776987707644 143.4266507060508 a86.0,86.0 0 0,1 -11.730757126820373,-40.83630448921669" fill="none" id="id45" stroke="none" /><text fill="#e1ed5e" style="font-size:6.75px; font-family:Arial;" text-anchor="middle"><textPath startOffset="21.46611528233685" xlink:href="#id45">September</textPath></text><path d="M 81.69416730710424 110.29060199501025 l -21.625597692788418 12.156803926601077 a45.808352570861274,45.808352570861274 0 0,0 -0.38047892059621313,-0.6906797584553133 l 21.831653022836147 -11.782753649747942" fill="#ff4a06" stroke="none" /><line stroke="#e1ed5e" stroke-width="0.3" x1="15.007084014347285" x2="10.007500721073583" y1="101.09737516637583" y2="101.16192664675087" /><path d="M 14.007167355692545 101.11028546245083 a86.0,86.0 0 0,1 10.666146001902534,-42.60595125391555" fill="none" id="id46" stroke="none" /><text fill="#e1ed5e" style="font-size:6.75px; font-family:Arial;" text-anchor="middle"><textPath startOffset="22.20632615414155" xlink:href="#id46">October</textPath></text><line stroke="#e1ed5e" stroke-width="0.3" x1="26.266209847984243" x2="21.928928074336255" y1="57.711370442889674" y2="55.22380399835377" /><path d="M 25.398753493254645 57.213857153982495 a86.0,86.0 0 0,1 29.58750427330803,-30.492523968695096" fill="none" id="id47" stroke="none" /><text fill="#e1ed5e" style="font-size:6.75px; font-family:Arial;" text-anchor="middle"><textPath startOffset="21.46611528233685" xlink:href="#id47">November</textPath></text><line stroke="#e1ed5e" stroke-width="0.3" x1="56.762969772571076" x2="54.21961505331055" y1="26.818313649435495" y2="22.513508569990535" /><path d="M 56.25429882871897 25.957352633546506 a86.0,86.0 0 0,1 42.265352541879196,-11.944610805530505" fill="none" id="id48" stroke="none" /><text fill="#e1ed5e" style="font-size:6.75px; font-family:Arial;" text-anchor="middle"><textPath startOffset="22.20632615414155" xlink:href="#id48">December</textPath></text></svg>