<?xml version="1.0" encoding="utf-8" ?>
<svg baseProfile="full" height="200mm" version="1.1" viewBox="0,0,200,200" width="200mm" xmlns="http://www.w3.org/2000/svg" xmlns:ev="http://www.w3.org/2001/xml-events" xmlns:xlink="http://www.w3.org/1999/xlink"><defs /><rect fill="#1a1a1a" height="200" width="200" x="0" y="0" /><text alignment-baseline="middle" fill="#e1ed5e" style="dominant-baseline: central; font-size:9.0px; font-family:Arial;" text-anchor="middle" x="100.0" y="100.0">2022</text><line stroke="#e1ed5e" stroke-width="0.3" x1="100.0" x2="100.0" y1="15.0" y2="10.0" /><path d="M 100.0 14.0 a86.0,86.0 0 0,1 42.46469731375804,11.215312516191453" fill="none" id="id25" stroke="none" /><text fill="#e1ed5e" style="font-size:6.75px; font-family:Arial;" text-anchor="middle"><textPath startOffset="22.20632615414155" xlink:href="#id25">January</textPath></text><path d="M 106.40334571778207 80.00007090966166 l 11.006159858062073 -34.37615684358422 a57.09509266030383,57.09509266030383 0 0,0 0.9334155274258654,0.30773242387112415 l -11.596258207730356 34.181610695453855" fill="#5eff29" stroke="none" /><path d="M 107.08798089147638 80.2323363322302 l 10.887330486375559 -30.363666407923997 a53.25656836756283,53.25656836756283 0 0,0 0.860265202808497,0.3168429342710646 l -11.408378014956632 30.17176020584661" fill="#89ff24" stroke="none" /><path d="M 108.09893153111575 80.62456947434976 l 9.883527237012053 -23.644797414742097 a46.62733999908991,46.62733999908991 0 0,0 0.7378582101300422,0.31591237832904556 l -10.28906920493241 23.471165508450262" fill="#d9ff1c" stroke="none" /><path d="M 109.41281617654863 81.2277094730956 l 10.92400933233079 -21.786113003677144 a45.37147307205374,45.37147307205374 0 0,0 0.6951331249324989,0.35607418570747906 l -11.297402944852045 21.594846292657163" fill="#e8ff1a" stroke="none" /><line stroke="#e1ed5e" stroke-width="0.3" x1="143.23703022742887" x2="145.7803849466894" y1="26.81831364943548" y2="22.513508569990506" /><path d="M 143.74570117128098 25.957352633546492 a86.0,86.0 0 0,1 28.547481713284135,27.462654790039103" fill="none" id="id26" stroke="none" /><text fill="#e1ed5e" style="font-size:6.75px; font-family:Arial;" text-anchor="middle"><textPath startOffset="19.985693538727396" xlink:href="#id26">February</textPath></text><path d="M 113.89432698308785 84.25364557470407 l 26.411241328324024 -29.931695667881108 a60.918167218168016,60.918167218168016 0 0,0 0.7803008398798738,0.7005617984354888 l -26.92255315579989 29.47263486067632" fill="#36ff2f" stroke="none" /><path d="M 115.68641384162765 86.03803664274999 l 27.427013139638575 -24.411886382739617 a57.717587700251975,57.717587700251975 0 0,0 0.6541550232056706,0.7478122736538401 l -27.843160026422094 23.93615855288283" fill="#58ff2a" stroke="none" /><path d="M 116.82858285166822 87.43820079747576 l 28.216847130266597 -21.062639136223794 a56.21115205947713,56.21115205947713 0 0,0 0.5721154661329491,0.7803648528490499 l -28.57522520891317 20.57381183970325" fill="#68ff28" stroke="none" /><path d="M 117.65298651832404 88.62581576622439 l 34.38069307183303 -22.152191453723937 a61.899286574487185,61.899286574487185 0 0,0 0.5693920942025777,0.9006415532212865 l -34.756912762281566 21.557102252788443" fill="#30ff34" stroke="none" /><line stroke="#e1ed5e" stroke-width="0.3" x1="172.23445277983987" x2="176.4835382374775" y1="55.19839476539836" y2="52.563006222186495" /><path d="M 173.08426987136738 54.67131705675599 a86.0,86.0 0 0,1 12.851231095245387,41.99856678651699" fill="none" id="id27" stroke="none" /><text fill="#e1ed5e" style="font-size:6.75px; font-family:Arial;" text-anchor="middle"><textPath startOffset="22.20632615414155" xlink:href="#id27">March</textPath></text><path d="M 119.61058180528143 92.48833698450437 l 30.96780357079063 -11.861948159599914 a54.16188583509853,54.16188583509853 0 0,0 0.32599113560263204,0.87349417081936 l -31.167399294894885 11.327130851751221" fill="#7fff26" stroke="none" /><path d="M 119.97218684219823 93.5106431181261 l 38.30524233543089 -12.44612770375607 a61.276515305998004,61.276515305998004 0 0,0 0.3173088101581363,1.0059556406529424 l -38.513806629357234 11.784921896676709" fill="#32ff2f" stroke="none" /><path d="M 120.37134235888165 94.90015583598534 l 14.991902462394048 -3.753133442724902 a36.45455111223994,36.45455111223994 0 0,0 0.14715001026349572,0.6100317920984827 l -15.054285272918364 3.494516418967013" fill="#ff9f0e" stroke="none" /><path d="M 120.73433829027371 96.67025291283417 l 24.752180773217294 -3.97497622913214 a46.069321671162015,46.069321671162015 0 0,0 0.11899948542427063,0.7840579265127614 l -24.816936152080864 3.548319190227297" fill="#e0ff1b" stroke="none" /><path d="M 120.87857604477298 97.74499172005257 l 4.651115279310755 -0.5023476430262365 a25.678164864120543,25.678164864120543 0 0,0 0.04368085029295189,0.43986020134427556 l -4.659073255285936 0.4222119109775259" fill="#ff0000" stroke="none" /><path d="M 120.98425023603335 99.18683210126433 l 40.9189343488531 -1.5856636996170994 a61.94964612318443,61.94964612318443 0 0,0 0.03212031787399502,1.0659169762268432 l -40.94016636118274 0.881076575965257" fill="#30ff35" stroke="none" /><line stroke="#e1ed5e" stroke-width="0.3" x1="184.98032266829074" x2="189.97916517819016" y1="98.17113171792111" y2="98.06355123074" /><path d="M 185.9800911702706 98.14961562048488 a86.0,86.0 0 0,1 -9.607161424134198,41.387399972396054" fill="none" id="id28" stroke="none" /><text fill="#e1ed5e" style="font-size:6.75px; font-family:Arial;" text-anchor="middle"><textPath startOffset="21.466115282336823" xlink:href="#id28">April</textPath></text><path d="M 120.76222939487914 103.15116336523771 l 40.19899942503906 6.101156667628272 a61.65936137542295,61.65936137542295 0 0,0 -0.16829554386869416,1.0479765123210003 l -40.08802212680908 -6.792212409642477" fill="#30ff31" stroke="none" /><path d="M 120.64145759157962 103.86396538481128 l 22.635516021049572 4.2372419672705615 a44.02869525241043,44.02869525241043 0 0,0 -0.1458609180811549,0.7437416788524449 l -22.55922516999275 -4.626247373190951" fill="#faff18" stroke="none" /><path d="M 120.13307415673323 105.97154293290107 l 39.0489497770588 11.582060358150517 a61.730389156391595,61.730389156391595 0 0,0 -0.3109248807392366,1.0161205002490261 l -38.84379812381343 -12.2525078309516" fill="#30ff32" stroke="none" /><path d="M 120.02730092923936 106.31721596034902 l 28.92830606433041 9.124861978213163 a51.33331498324929,51.33331498324929 0 0,0 -0.2730632887929876,0.8404023885251157 l -28.766950524521175 -9.621463266716075" fill="#a0ff22" stroke="none" /><path d="M 119.26925614724726 108.34839909993367 l 30.072696573675593 13.028986230177702 a53.77379382065067,53.77379382065067 0 0,0 -0.37528709010660677,0.8461733152920592 l -29.843968398837713 -13.544707881962449" fill="#83ff25" stroke="none" /><path d="M 118.97047184881838 109.00673069616215 l 36.70609891880483 17.427186340067568 a61.63304716075971,61.63304716075971 0 0,0 -0.4632655132970309,0.9544641721043848 l -36.40068014889309 -18.056439468137228" fill="#2fff31" stroke="none" /><line stroke="#e1ed5e" stroke-width="0.3" x1="174.80103733775053" x2="179.2010983576182" y1="140.37084112569926" y2="142.7455964860345" /><path d="M 175.68104954172406 140.8457921977663 a86.0,86.0 0 0,1 -30.038265399797805,32.042727171017184" fill="none" id="id29" stroke="none" /><text fill="#e1ed5e" style="font-size:6.75px; font-family:Arial;" text-anchor="middle"><textPath startOffset="22.206326154141568" xlink:href="#id29">May</textPath></text><path d="M 118.30583269289576 110.29060199501025 l 36.13285526397465 20.312041451639374 a62.450720831614696,62.450720831614696 0 0,0 -0.5348398800195672,0.9325384126017652 l -35.777863387802704 -20.930999710099456" fill="#31ff3b" stroke="none" /><path d="M 117.75023020441432 111.22182372390056 l 34.049602551836344 21.526404632800602 a61.2835143744073,61.2835143744073 0 0,0 -0.5713816223653132,0.8867969666326443 l -33.674016066093984 -22.1093231993547" fill="#32ff2f" stroke="none" /><path d="M 116.71984013943494 112.70617746262583 l 24.7825839910271 18.833428283188255 a52.12674878894852,52.12674878894852 0 0,0 -0.5490514987000819,0.7097230749567017 l -24.45472567510895 -19.25722935225821" fill="#96ff23" stroke="none" /><path d="M 116.27256486870786 113.27417163493432 l 34.99357772576314 28.54563866237515 a66.15976050303979,66.15976050303979 0 0,0 -0.727454921249383,0.876266315046167 l -34.49702680462021 -29.14376623453509" fill="#35ff69" stroke="none" /><path d="M 115.56566222782051 114.09645910891815 l 32.763242418435034 29.67080361037163 a65.20165879980505,65.20165879980505 0 0,0 -0.7605419298880757,0.8254180560380799 l -32.247654080551236 -30.230372921211046" fill="#34ff5e" stroke="none" /><path d="M 115.07121518719521 114.62390073753431 l 32.54630071771208 31.58032482172658 a66.34951605313452,66.34951605313452 0 0,0 -0.8023848392724643,0.8128116059262547 l -31.997875253384077 -32.1358769216335" fill="#36ff6c" stroke="none" /><path d="M 114.81725581225074 114.88116024355365 l 25.637647510847245 25.748218544032124 a57.335378463443746,57.335378463443746 0 0,0 -0.7053617979325025,0.690344978256054 l -25.190635760538946 -26.185713625210752" fill="#5cff2a" stroke="none" /><path d="M 114.29624159901734 115.38237550388516 l 27.385893769272922 29.46649289260896 a61.22761962796302,61.22761962796302 0 0,0 -0.7781752030368959,0.7108445976182236 l -26.874619016769163 -29.933530256813768" fill="#33ff2f" stroke="none" /><path d="M 113.48314897796784 116.09983520530334 l 8.752743220560887 10.45139556609759 a34.632394623253795,34.632394623253795 0 0,0 -0.46033027901801726,0.3788204805059908 l -8.57154281299818 -10.600511165460759" fill="#ff850c" stroke="none" /><path d="M 112.04921762599082 117.19931262002967 l 11.61287500760801 16.576467773504532 a41.239519504878594,41.239519504878594 0 0,0 -0.5849003317137338,0.40229978155867774 l -11.325817791271392 -16.773908344428303" fill="#ffe015" stroke="none" /><path d="M 111.45004920935366 117.60387380957326 l 34.35014762806101 52.81162142871979 a84.0,84.0 0 0,0 -1.2188727918122781,0.7779422847047646 l -33.4359930342018 -53.39507814224836" fill="#4dd2ff" stroke="none" /><line stroke="#e1ed5e" stroke-width="0.3" x1="143.8653032363475" x2="146.44561519142675" y1="172.8068346515853" y2="177.08958963109032" /><path d="M 144.38136562736335 173.6633856474863 a86.0,86.0 0 0,1 -40.68145358897372,12.25698825130547" fill="none" id="id30" stroke="none" /><text fill="#e1ed5e" style="font-size:6.75px; font-family:Arial;" text-anchor="middle"><textPath startOffset="21.466115282336833" xlink:href="#id30">June</textPath></text><path d="M 110.8373102113329 117.98757091392108 l 20.77299317803598 34.478637281562506 a61.25287162884508,61.25287162884508 0 0,0 -0.9078029353652698,0.5363459755342723 l -20.176422371642325 -34.831101829390526" fill="#32ff2f" stroke="none" /><path d="M 109.2508944713604 118.85261126421891 l 14.24853671013586 29.037421679791528 a53.34490154862303,53.34490154862303 0 0,0 -0.8278298876890958,0.39740865323019375 l -13.746594154446532 -29.278384609521282" fill="#88ff25" stroke="none" /><path d="M 108.59647513512805 119.15986991738527 l 11.977125396940188 26.694681364441276 a50.258461099707176,50.258461099707176 0 0,0 -0.792358923506218,0.3473468667828229 l -11.515845798776217 -26.896892784518553" fill="#acff20" stroke="none" /><path d="M 106.57524785965236 119.94407469862006 l 14.370786319428143 43.58954094967538 a66.89735917939169,66.89735917939169 0 0,0 -1.0967301350118668,0.3511383556346425 l -13.618334839325337 -43.83045215196973" fill="#36ff72" stroke="none" /><path d="M 104.48393922423573 120.51570834832081 l 10.188386325555939 46.615699264022176 a68.71610455383521,68.71610455383521 0 0,0 -1.157730691831357,0.24261372287793184 l -9.384464172295205 -46.784168967626655" fill="#39ff88" stroke="none" /><path d="M 101.26447882468166 120.96189622390904 l 2.838565120108016 47.056309928710654 a68.1418471853614,68.1418471853614 0 0,0 -1.1714295178219436,0.060549525526635846 l -2.028147533872593 -47.09819926099949" fill="#38ff81" stroke="none" /><line stroke="#e1ed5e" stroke-width="0.3" x1="102.19456741930631" x2="102.32365962044197" y1="184.97166512339345" y2="189.96999836594603" /><path d="M 102.22038585953345 185.97133177190398 a86.0,86.0 0 0,1 -42.740103519485714,-10.115201625700543" fill="none" id="id31" stroke="none" /><text fill="#e1ed5e" style="font-size:6.75px; font-family:Arial;" text-anchor="middle"><textPath startOffset="22.20632615414155" xlink:href="#id31">July</textPath></text><path d="M 100.54218724476979 120.99299961872073 l 1.0323920741509955 39.97328714035724 a60.98661673860667,60.98661673860667 0 0,0 -1.0496676983999524,0.018070981348721992 l -0.344164685858375 -39.985135598985124" fill="#35ff2f" stroke="none" /><path d="M 99.45781275523022 120.99299961872073 l -1.0335143660035788 40.01674126559023 a61.030085354167404,61.030085354167404 0 0,0 -1.0499489416200056,-0.03616236448260031 l 1.7221836592982276 -39.993022102681536" fill="#35ff2f" stroke="none" /><path d="M 98.73552117531835 120.96189622390904 l -1.808307931112608 29.97722259397854 a51.03171410397119,51.03171410397119 0 0,0 -0.8763779279607193,-0.06044015294940014 l 2.3240486198522574 -29.941654096512853" fill="#a3ff21" stroke="none" /><path d="M 96.93821686468263 120.77559828337769 l -4.335228411477868 29.416506644326425 a50.734240675278485,50.734240675278485 0 0,0 -0.862878631250642,-0.13476389620601664 l 4.840942906337027 -29.3375244407733" fill="#a7ff21" stroke="none" /><path d="M 96.22490169976321 120.6578951692458 l -7.186479104401808 39.32547450894085 a60.97672356848871,60.97672356848871 0 0,0 -1.0308910297201377,-0.19757271938718884 l 7.8623377486936405 -39.19594459120519" fill="#35ff2f" stroke="none" /><path d="M 94.81253420990036 120.34920634021253 l -5.325585119727515 20.89101593508901 a42.559137359078306,42.559137359078306 0 0,0 -0.7083250120331649,-0.18707507354381184 l 5.6844005745721695 -20.796249512241612" fill="#fff116" stroke="none" /><path d="M 94.11515582081647 120.15858648285463 l -11.331403294138354 38.81582354975516 a61.435984697545535,61.435984697545535 0 0,0 -1.0125967511298388,-0.30508709465761086 l 11.997875019708438 -38.61502108599182" fill="#30ff2f" stroke="none" /><path d="M 93.76903079525671 120.05430185196036 l -8.77219180780538 28.23319721803546 a50.56458648899749,50.56458648899749 0 0,0 -0.8289670391649936,-0.2654090680243455 l 9.256880192061313 -28.078015303351407" fill="#a9ff21" stroke="none" /><path d="M 93.08242187328487 119.8279376855182 l -7.561499687412478 21.673617827613175 a43.95478135945038,43.95478135945038 0 0,0 -0.7122358244484799,-0.25538242651036036 l 7.933455072490684 -21.540247860062856" fill="#fbff18" stroke="none" /><path d="M 92.40401165467489 119.57807347666478 l -14.650997713733826 37.7618154091114 a61.50440021774964,61.50440021774964 0 0,0 -0.9837157982775551,-0.3914408177149736 l 15.29883458805324 -37.50402774699036" fill="#30ff2f" stroke="none" /><path d="M 91.7346041902142 119.30500536409082 l -9.30266437803506 21.727693367773224 a44.635401913535105,44.635401913535105 0 0,0 -0.703707559614937,-0.30848471407631334 l 9.67529261230774 -21.564344100402458" fill="#f2ff19" stroke="none" /><path d="M 91.40352486487194 119.15986991738527 l -16.72354189963476 37.2735199390734 a61.85330026224738,61.85330026224738 0 0,0 -0.9676566049312253,-0.44420368676455685 l 17.362666500333404 -36.980129181974775" fill="#30ff33" stroke="none" /><path d="M 90.7491055286396 118.85261126421891 l -9.292493574583643 18.93738703638192 a42.094432075773085,42.094432075773085 0 0,0 -0.6477452968380732,-0.32479293880639243 l 9.617092779104478 -18.774626256666227" fill="#ffeb16" stroke="none" /><line stroke="#e1ed5e" stroke-width="0.3" x1="58.666819895761336" x2="56.23545636021788" y1="174.27360380694188" y2="178.64263932499728" /><path d="M 58.180547188652646 175.14741091055294 a86.0,86.0 0 0,1 -31.652253787137756,-30.449443065178592" fill="none" id="id32" stroke="none" /><text fill="#e1ed5e" style="font-size:6.75px; font-family:Arial;" text-anchor="middle"><textPath startOffset="22.20632615414155" xlink:href="#id32">August</textPath></text><path d="M 89.4739219176387 118.17145234162733 l -9.147805906372081 15.79210393058452 a39.250284914352406,39.250284914352406 0 0,0 -0.5817118922207846,-0.3436856394251536 l 9.418285669621248 -15.632299718865617" fill="#ffc512" stroke="none" /><path d="M 88.54995079064634 117.60387380957326 l -16.990125622504983 26.121462187519985 a52.16079516768686,52.16079516768686 0 0,0 -0.7484460627555423,-0.4960292388779743 l 17.43724638400049 -25.825134927550693" fill="#96ff23" stroke="none" /><path d="M 87.65650970185807 116.9893568818739 l -4.897259236514815 6.740499072999456 a29.331715056501643,29.331715056501643 0 0,0 -0.40591605899140326,-0.3002869963594212 l 5.012560265924782 -6.655202127900268" fill="#ff3805" stroke="none" /><path d="M 87.36589467227662 116.77436683061367 l -14.963800938005793 19.867515712695187 a45.872344463408616,45.872344463408616 0 0,0 -0.6266408468191806,-0.48048148000443364 l 15.30357051331846 -19.606994890863387" fill="#e2ff1b" stroke="none" /><path d="M 86.79598089348748 116.32954008644616 l -25.275623796206805 31.258612143822113 a61.198979980159685,61.198979980159685 0 0,0 -0.8134506388122922,-0.6694144963049694 l 25.80994456356379 -30.81890252865996" fill="#33ff2f" stroke="none" /><path d="M 85.44109423537348 115.13401014063109 l -18.994244456636988 19.74455311873806 a48.39760391598422,48.39760391598422 0 0,0 -0.5954058703139034,-0.5827299604262309 l 19.331300279326687 -19.414673055389258" fill="#c3ff1e" stroke="none" /><path d="M 83.95833913139862 113.55231037782056 l -39.22528128011954 33.138288542553035 a72.34947768998238,72.34947768998238 0 0,0 -0.7955135144871561,-0.9582472749127469 l 39.78989079450023 -32.458180010526526" fill="#3effb2" stroke="none" /><line stroke="#e1ed5e" stroke-width="0.3" x1="26.63291911575756" x2="22.317208475507996" y1="142.92168965132927" y2="145.44649492493687" /><path d="M 25.769776987707644 143.4266507060508 a86.0,86.0 0 0,1 -11.730757126820373,-40.83630448921669" fill="none" id="id33" stroke="none" /><text fill="#e1ed5e" style="font-size:6.75px; font-family:Arial;" text-anchor="middle"><textPath startOffset="21.46611528233685" xlink:href="#id33">September</textPath></text><line stroke="#e1ed5e" stroke-width="0.3" x1="15.007084014347285" x2="10.007500721073583" y1="101.09737516637583" y2="101.16192664675087" /><path d="M 14.007167355692545 101.11028546245083 a86.0,86.0 0 0,1 10.666146001902534,-42.60595125391555" fill="none" id="id34" stroke="none" /><text fill="#e1ed5e" style="font-size:6.75px; font-family:Arial;" text-anchor="middle"><textPath startOffset="22.20632615414155" xlink:href="#id34">October</textPath></text><line stroke="#e1ed5e" stroke-width="0.3" x1="26.266209847984243" x2="21.928928074336255" y1="57.711370442889674" y2="55.22380399835377" /><path d="M 25.398753493254645 57.213857153982495 a86.0,86.0 0 0,1 29.58750427330803,-30.492523968695096" fill="none" id="id35" stroke="none" /><text fill="#e1ed5e" style="font-size:6.75px; font-family:Arial;" text-anchor="middle"><textPath startOffset="21.46611528233685" xlink:href="#id35">November</textPath></text><line stroke="#e1ed5e" stroke-width="0.3" x1="56.762969772571076" x2="54.21961505331055" y1="26.818313649435495" y2="22.513508569990535" /><path d="M 56.25429882871897 25.957352633546506 a86.0,86.0 0 0,1 42.265352541879196,-11.944610805530505" fill="none" id="id36" stroke="none" /><text fill="#e1ed5e" style="font-size:6.75px; font-family:Arial;" text-anchor="middle"><textPath startOffset="22.20632615414155" xlink:href="#id36">December</textPath></text></svg>